# xmcd
#
# Track frame offsets:
#	150
#	15220
#	25685
#	36235
#	49555
#	62570
#	72375
#	83750
#	95965
#	106720
#	121205
#	131600
#	144235
#	156385
#	175545
#	188020
#	209245
#	224780
#	238630
#	252435
#	270220
#	284130
#	295695
#	309780
#	324305
#
# Disc length: 4444 seconds
#
# Revision: 0
# Processed by: cddbd v1.4PL0 Copyright (c) Steve Scherf et al.
# Submitted via: dBpowerAMP V4.0
#
DISCID=65115a19
DTITLE=Lee Hazlewood - Poet, Fool or Bum
DYEAR=1997
DGENRE=Country
TTITLE0=Poet
TTITLE1=Kari
TTITLE2=Feathers
TTITLE3=Performer
TTITLE4=Come spend the morning
TTITLE5=Wind, sky, sea and sand
TTITLE6=Think I'm coming down
TTITLE7=Pray them bars away
TTITLE8=Cold hard times
TTITLE9=The night before
TTITLE10=No train to Stockholm
TTITLE11=Easy and me
TTITLE12=Long haired country boy
TTITLE13=The ballad of Lucy Jordan
TTITLE14=To Ramona
TTITLE15=Whole lotta shakin'going on
TTITLE16=Back on the street again
TTITLE17=Your thunder and your lighting
TTITLE18=Suddenly Tennessee
TTITLE19=A rider on a white horse
TTITLE20=Dolly Parton's guitar
TTITLE21=Mother country music
TTITLE22=It's for my dad
TTITLE23=Hello, saturday morning
TTITLE24=L.A. lady
EXTD=Poet, Fool or Bum
EXTT0=
EXTT1=
EXTT2=
EXTT3=
EXTT4=
EXTT5=
EXTT6=
EXTT7=
EXTT8=
EXTT9=
EXTT10=
EXTT11=
EXTT12=
EXTT13=
EXTT14=
EXTT15=
EXTT16=
EXTT17=
EXTT18=
EXTT19=
EXTT20=
EXTT21=
EXTT22=
EXTT23=
EXTT24=
PLAYORDER=
